<?xml version="1.0" standalone="no"?>
<!DOCTYPE svg PUBLIC "-//W3C//DTD SVG 20010904//EN"
 "http://www.w3.org/TR/2001/REC-SVG-20010904/DTD/svg10.dtd">
<svg version="1.0" xmlns="http://www.w3.org/2000/svg"
 width="1253.000000pt" height="1740.000000pt" viewBox="0 0 1253.000000 1740.000000"
 preserveAspectRatio="xMidYMid meet">

<g transform="translate(0.000000,1740.000000) scale(0.100000,-0.100000)"
fill="#000000" stroke="none">
<path
  d="M3140 13057 c-1719 -2388 -3126 -4346 -3128 -4353 -2 -7 6181 -8612 6252 -8701 2 -3 6251 8682 6254 8692 2 8 -6203 8643 -6252 8701 0 1 -1407 -1952 -3126 -4339z"
  fill="#efece5"
/>
<path d="M3140 13057 c-1719 -2388 -3126 -4346 -3128 -4353 -2 -7 6181 -8612
6252 -8701 2 -3 6251 8682 6254 8692 2 8 -6203 8643 -6252 8701 0 1 -1407
-1952 -3126 -4339z m6208 -105 l3061 -4252 -3061 -4253 c-1683 -2338 -3066
-4258 -3073 -4265 -10 -11 -593 793 -3079 4246 -1686 2343 -3066 4266 -3066
4272 0 6 1380 1929 3066 4271 2480 3445 3069 4258 3079 4247 7 -7 1390 -1927
3073 -4266z"
fill="#1f1d1a"/>
<path d="M7777 12531 c-76 -39 -574 -476 -1342 -1180 -637 -584 -1227 -1160
-2061 -2014 l-379 -387 -120 -34 c-352 -100 -884 -286 -1341 -470 -445 -178
-936 -399 -986 -444 -45 -39 -1 -112 59 -97 16 3 109 44 208 90 474 218 861
377 1345 553 305 110 590 206 596 199 6 -6 -576 -572 -946 -922 -379 -357
-1075 -1053 -1085 -1084 -5 -16 -1 -31 12 -50 17 -21 29 -27 73 -29 l53 -3 86
88 c47 48 232 238 410 422 179 183 532 534 785 779 254 246 562 547 686 669
l225 222 340 91 c667 178 1224 308 1580 369 318 54 585 90 585 79 0 -2 -21
-66 -46 -143 -83 -257 -224 -749 -308 -1075 -134 -522 -306 -1297 -306 -1380
0 -30 6 -43 26 -59 40 -31 80 -27 118 12 30 29 35 45 65 197 103 523 263 1191
399 1665 78 271 240 806 246 812 12 13 962 93 1105 93 21 0 9 -20 -84 -144
-152 -202 -473 -669 -687 -1001 -199 -307 -515 -907 -666 -1260 -75 -176 -80
-197 -53 -224 32 -32 95 -29 127 6 13 14 76 132 140 262 201 409 430 835 579
1076 34 55 94 153 134 218 87 140 391 596 479 717 193 264 259 351 272 355 16
5 473 25 584 25 l69 0 -39 -26 c-137 -93 -285 -239 -327 -324 -94 -189 56
-268 313 -165 150 60 415 214 645 375 l85 59 0 -42 c0 -146 108 -249 298 -283
102 -18 337 -18 564 1 295 24 1010 107 1046 121 25 10 32 19 32 41 0 66 -26
67 -502 13 -582 -65 -900 -87 -1028 -71 -149 19 -240 84 -240 170 0 43 35 121
79 175 33 41 40 86 17 105 -32 27 -83 24 -151 -7 l-66 -31 -11 23 c-5 13 -25
32 -43 42 -43 23 -165 15 -295 -20 -53 -14 -138 -28 -190 -31 -165 -10 -733
-25 -738 -20 -6 5 96 145 142 193 17 19 62 52 100 74 138 81 387 255 517 363
265 217 596 570 734 783 125 194 175 362 126 424 -30 37 -70 44 -124 20 -172
-76 -530 -399 -863 -777 -145 -164 -290 -349 -526 -666 -80 -108 -161 -207
-179 -221 -89 -66 -294 -159 -444 -203 -71 -20 -134 -29 -295 -40 -227 -16
-545 -43 -572 -49 -10 -2 -18 -3 -18 -1 0 37 285 843 410 1160 28 72 62 159
74 195 13 36 63 164 111 285 306 772 474 1204 494 1266 15 46 1 86 -34 99 -34
13 -35 13 -78 -9z m-173 -361 c-14 -36 -61 -150 -104 -255 -104 -253 -250
-619 -311 -780 -27 -71 -68 -175 -91 -230 -88 -216 -330 -886 -423 -1170 -37
-115 -71 -213 -74 -217 -4 -5 -90 -19 -191 -33 -585 -81 -1061 -178 -1823
-371 -164 -42 -300 -74 -302 -72 -5 5 657 691 1049 1086 296 299 835 815 1186
1136 107 99 238 218 290 266 387 354 807 717 817 707 1 -2 -9 -32 -23 -67z
m2018 -953 c-45 -96 -69 -133 -191 -297 -105 -141 -421 -461 -571 -576 -124
-96 -259 -189 -265 -182 -7 7 213 295 349 457 148 177 365 402 506 525 106 94
202 167 208 161 2 -2 -14 -42 -36 -88z m-232 -1631 c0 -16 -390 -276 -540
-361 -103 -58 -232 -113 -286 -122 -34 -6 -34 -5 -24 24 33 93 218 254 397
346 128 65 188 84 325 102 128 16 128 16 128 11z"
fill="#1f1d1a"/>
</g>
</svg>
